<svg width="67" height="67" viewBox="0 0 67 67" fill="none" xmlns="http://www.w3.org/2000/svg">
<circle cx="33.5" cy="33.5" r="33.5" fill="#ED0213"/>
<g clip-path="url(#clip0_850_11586)">
<path d="M39.3183 27.7917L37.9762 26.8922C37.5122 26.5852 36.8912 26.7066 36.5842 27.1706C36.2772 27.6346 36.3986 28.2557 36.8626 28.5626L38.2047 29.4621C38.84 29.8619 39.404 29.4764 39.5967 29.1837C39.9037 28.7197 39.7752 28.0986 39.3183 27.7917Z" fill="white"/>
<path d="M51.1613 34.0023C50.7544 32.9958 50.1119 32.0535 49.2553 31.204C42.4664 24.4865 37.4764 22.609 35.7989 22.1307C31.9939 10.7231 16.4745 12.4007 16.3174 12.4221C15.8534 12.4721 15.4893 12.8433 15.4394 13.3144C15.3894 13.7785 15.6678 14.2211 16.1175 14.371C24.5055 17.2336 26.9755 21.8452 27.6179 23.5442C26.6828 24.2081 25.9189 25.1075 25.4121 26.1855L23.5632 30.1189C21.0718 32.7174 15.8748 36.7578 15.8249 36.8007C15.5821 36.9934 15.4394 37.2861 15.4394 37.5931V47.5801C15.4394 48.1369 15.8891 48.5866 16.4459 48.5866H32.8006C33.1219 48.5866 33.4288 48.4296 33.6216 48.1654C35.9131 44.9459 37.198 40.7484 37.5978 39.3064C39.3896 39.7632 40.9887 40.0916 42.4164 40.2915C42.4521 41.9262 42.7805 45.3242 44.7151 47.4016C45.4718 48.2154 46.4426 47.5015 46.464 46.8091C46.5354 44.8745 47.2422 41.4051 48.3344 40.1487C49.1053 39.906 49.7264 39.5562 50.2047 39.0851C50.9543 38.3355 51.1613 37.436 51.1541 36.7721C51.8894 35.8155 51.4897 34.8233 51.1613 34.0023ZM21.3502 14.4566C25.4978 14.8707 31.1659 16.4697 33.5073 21.8023C32.3081 21.8166 30.9374 22.095 29.4097 22.6376C28.6816 20.8529 26.6542 17.3335 21.3502 14.4566ZM44.9007 43.511C44.5866 42.3974 44.4723 41.2766 44.4367 40.4914C44.9221 40.5199 45.379 40.5271 45.8144 40.5128C45.4004 41.4622 45.1077 42.5259 44.9007 43.511ZM49.5694 35.5157C48.2701 35.8941 46.4569 35.9155 44.2725 35.5657C43.7228 35.48 43.2088 35.8512 43.1231 36.4009C43.0375 36.9506 43.4087 37.4574 43.9584 37.5502C45.9501 37.8929 47.542 37.8643 48.7056 37.7216C47.9846 38.3498 45.5003 39.3706 37.3265 37.1576C37.3051 37.1505 34.9137 36.3724 33.7215 33.9666C34.1427 32.5246 34.4211 30.7756 34.4282 28.6412C34.4282 28.0844 33.9856 27.6346 33.4288 27.6346C33.4288 27.6346 33.4288 27.6346 33.4217 27.6346C32.872 27.6346 32.4223 28.0844 32.4151 28.634C32.3866 34.6305 30.1236 37.0505 28.8101 37.95C26.9826 30.9113 30.0951 28.0701 30.2521 27.9344C30.6733 27.5775 30.7233 26.9493 30.3663 26.521C30.0094 26.0998 29.3741 26.0427 28.9529 26.3996C28.7601 26.5638 24.2985 30.4473 27.2253 39.699C27.361 40.1273 27.7821 40.5199 28.4674 40.3629C28.6245 40.3272 31.0945 39.5491 32.8078 36.2653C33.7501 37.4717 34.878 38.2213 35.6918 38.6353C35.392 39.7347 34.264 43.5824 32.2724 46.5807H17.4453V38.0856C18.7517 37.0577 22.9564 33.6954 25.1337 31.3824C25.2051 31.3039 25.2693 31.2182 25.3122 31.1183L27.2253 27.035C27.7607 25.8999 28.6887 25.0433 29.8452 24.6078C33.1433 23.3514 34.8209 23.9582 34.8423 23.9582C34.8922 23.9653 40.1178 24.9862 47.8347 32.6317C48.4986 33.2885 48.9911 34.0023 49.291 34.7519C49.4052 35.0231 49.5694 35.4229 49.5694 35.5157Z" fill="white"/>
</g>
<defs>
<clipPath id="clip0_850_11586">
<rect width="36.55" height="36.55" fill="white" transform="translate(15.2251 12.1794)"/>
</clipPath>
</defs>
</svg>
